<svg xmlns="http://www.w3.org/2000/svg" viewBox="0 0 28 28">
    <path fill="#007bff" fill-rule="evenodd" d="M1.08 8.65a.763.763 0 0 1-.33-.316.9.9 0 0 1-.118-.448c0-.158.044-.303.132-.435a.877.877 0 0 1 .342-.304L13.763.793a.76.76 0 0 1 .382-.106.76.76 0 0 1 .382.106l12.525 6.354c.14.07.25.172.33.304a.83.83 0 0 1 .118.435c0 .157-.04.312-.119.448a.81.81 0 0 1-.303.316l-12.682 6.83a.422.422 0 0 1-.185.065c-.07.01-.14.014-.211.014a.717.717 0 0 1-.198-.027 6.16 6.16 0 0 0-.198-.053L1.08 8.65zm13.052-6.17L3.295 7.938 14 13.766l10.837-5.828L14.132 2.48zm12.762 10.864a.85.85 0 0 1 .342.316.79.79 0 0 1 .132.422.9.9 0 0 1-.118.448.763.763 0 0 1-.33.317l-12.656 6.829c-.07.035-.137.061-.198.079a.718.718 0 0 1-.198.026.864.864 0 0 1-.21-.026 1.03 1.03 0 0 1-.212-.08L.922 14.848a.81.81 0 0 1-.303-.317.901.901 0 0 1-.119-.448.83.83 0 0 1 .119-.435.785.785 0 0 1 .33-.303l2.662-1.319 1.793.976-2.24 1.134 10.704 5.827 10.837-5.827-2.11-1.081 1.794-.976 2.505 1.266v-.001zm0 5.906a.85.85 0 0 1 .342.316.79.79 0 0 1 .132.422.9.9 0 0 1-.118.449.763.763 0 0 1-.33.316l-12.656 6.829c-.07.035-.137.062-.198.08a.718.718 0 0 1-.198.026.869.869 0 0 1-.21-.027 1.03 1.03 0 0 1-.212-.079L.922 20.752a.81.81 0 0 1-.303-.315.9.9 0 0 1-.119-.449.83.83 0 0 1 .119-.435.785.785 0 0 1 .33-.303l2.504-1.134 1.793.976-2.083.949 10.705 5.827 10.837-5.827-1.977-.976 1.793-.975 2.373 1.16z"/>
</svg>
