<?xml version="1.0" encoding="utf-8"?>
<!-- Svg Vector Icons : http://www.onlinewebfonts.com/icon -->
<!DOCTYPE svg PUBLIC "-//W3C//DTD SVG 1.1//EN" "http://www.w3.org/Graphics/SVG/1.1/DTD/svg11.dtd">
<svg version="1.1" xmlns="http://www.w3.org/2000/svg" xmlns:xlink="http://www.w3.org/1999/xlink" x="0px" y="0px" viewBox="0 0 1000 1000" enable-background="new 0 0 1000 1000" xml:space="preserve">
<metadata> Svg Vector Icons : http://www.onlinewebfonts.com/icon </metadata>
<g><g transform="translate(0.000000,414.000000) scale(0.100000,-0.100000)"><path fill="#007bff" d="M1049.4,3091.7c-423.8-51.8-769-337.5-903.3-749.9l-46-140V-320.1c0-2790.4-7.7-2615.9,128.5-2880.5c138.1-266.6,431.5-490.9,721.1-550.4c69-13.4,607.9-21.1,1668.5-21.1c861.1,0,1578.3-7.7,1591.8-15.3c17.3-13.4,23-74.8,19.2-245.5l-5.8-228.2l-604.1-9.6c-600.3-9.6-604.1-9.6-690.4-57.5c-130.4-72.9-197.5-184.1-207.1-337.5c-5.8-94-1.9-132.3,17.3-143.8c34.5-21.1,4487.6-21.1,4522.2,0c19.2,11.5,23,49.9,17.3,143.8c-9.6,153.4-76.7,264.7-207.1,337.5c-86.3,47.9-86.3,47.9-684.7,53.7c-590.7,5.8-600.3,5.8-621.4,46c-30.7,55.6-9.6,418.1,24.9,441.1c13.4,7.7,730.7,15.3,1591.8,15.3c1060.5,0,1599.4,7.7,1668.5,21.1c374,76.7,692.3,379.7,815.1,776.7c32.6,107.4,34.5,243.6,34.5,2644.6v2531.5l-46,141.9c-115.1,349-387.4,613.7-751.8,726.9c-95.9,28.8-421.9,32.6-4015.9,34.5C2934.6,3107,1118.4,3101.2,1049.4,3091.7z M9046.6,2554.7c153.4-70.9,220.5-138.1,291.5-281.9l63.3-128.5V-339.3v-2483.5l-46-101.6c-57.5-126.6-216.7-276.2-339.4-318.4c-82.5-26.8-462.2-30.7-4015.9-30.7c-3553.7,0-3933.4,3.8-4015.9,30.7c-122.7,42.2-281.9,191.8-339.5,318.4l-46,101.6v2483.5v2483.5l49.9,105.5c26.9,57.5,71,132.3,99.7,163c63.3,76.7,222.5,163,335.6,182.2c49.9,7.7,1837.3,13.4,3973.7,11.5l3883.5-1.9L9046.6,2554.7z"/></g></g>
</svg>